<?xml version="1.0" encoding="utf-8"?>
<!-- License: MIT. Made by designmodo: https://github.com/designmodo/Flat-UI -->
<svg width="800px" height="800px" viewBox="0 0 100 100" xmlns="http://www.w3.org/2000/svg"><path fill-rule="evenodd" clip-rule="evenodd" fill="#C0392B" d="M100 58a6 6 0 0 1-6 6H21a6 6 0 0 1-6-6V6a6 6 0 0 1 6-6h73a6 6 0 0 1 6 6v52z"/><path fill-rule="evenodd" clip-rule="evenodd" fill="#E74C3C" d="M85 73c0 3.223-2.74 6-6 6H66c-1.113 0-2 .754-2 2v18c0 .738-.253 1-.917 1-.232 0-.471-.154-.865-.457L38.251 81c-3-2-6.129-2.006-6.129-2.006l-26.22-.002C2.642 78.992 0 76.379 0 73.156V22.031C0 18.81 2.896 15.984 6 16h73c3.562 0 6 2.778 6 6v51z"/></svg>